<svg width="45" height="45" viewBox="0 0 45 45" fill="none" xmlns="http://www.w3.org/2000/svg">
<g clip-path="url(#clip0_19_2423)">
<path d="M22.5 4.21875C27.3485 4.21875 31.9984 6.1448 35.4268 9.5732C38.8552 13.0016 40.7812 17.6515 40.7812 22.5C40.7812 27.3485 38.8552 31.9984 35.4268 35.4268C31.9984 38.8552 27.3485 40.7812 22.5 40.7812C17.6515 40.7812 13.0016 38.8552 9.5732 35.4268C6.1448 31.9984 4.21875 27.3485 4.21875 22.5C4.21875 17.6515 6.1448 13.0016 9.5732 9.5732C13.0016 6.1448 17.6515 4.21875 22.5 4.21875ZM22.5 45C28.4674 45 34.1903 42.6295 38.4099 38.4099C42.6295 34.1903 45 28.4674 45 22.5C45 16.5326 42.6295 10.8097 38.4099 6.5901C34.1903 2.37053 28.4674 0 22.5 0C16.5326 0 10.8097 2.37053 6.5901 6.5901C2.37053 10.8097 0 16.5326 0 22.5C0 28.4674 2.37053 34.1903 6.5901 38.4099C10.8097 42.6295 16.5326 45 22.5 45ZM15.3809 15.3809C14.5547 16.207 14.5547 17.543 15.3809 18.3604L19.5117 22.4912L15.3809 26.6221C14.5547 27.4482 14.5547 28.7842 15.3809 29.6016C16.207 30.4189 17.543 30.4277 18.3604 29.6016L22.4912 25.4707L26.6221 29.6016C27.4482 30.4277 28.7842 30.4277 29.6016 29.6016C30.4189 28.7754 30.4277 27.4395 29.6016 26.6221L25.4707 22.4912L29.6016 18.3604C30.4277 17.5342 30.4277 16.1982 29.6016 15.3809C28.7754 14.5635 27.4395 14.5547 26.6221 15.3809L22.4912 19.5117L18.3604 15.3809C17.5342 14.5547 16.1982 14.5547 15.3809 15.3809Z" fill="white"/>
</g>
<defs>
<clipPath id="clip0_19_2423">
<rect width="45" height="45" fill="white"/>
</clipPath>
</defs>
</svg>
