<svg width="512" height="512" viewBox="0 0 512 512" fill="none" xmlns="http://www.w3.org/2000/svg">
<g clip-path="url(#clip0_31_10514)">
<path d="M512 240C512 354.9 397.4 448 256 448C218.9 448 183.7 441.6 151.9 430.1C140 438.8 120.6 450.7 97.6001 460.7C73.6001 471.1 44.7001 480 16.0001 480C9.50011 480 3.70011 476.1 1.20011 470.1C-1.29989 464.1 0.100114 457.3 4.60011 452.7L4.90011 452.4C5.20011 452.1 5.60011 451.7 6.20011 451C7.30011 449.8 9.00011 447.9 11.1001 445.3C15.2001 440.3 20.7001 432.9 26.3001 423.7C36.3001 407.1 45.8001 385.3 47.7001 360.8C17.7001 326.8 0.000114085 285.1 0.000114085 240C0.000114085 125.1 114.6 32 256 32C397.4 32 512 125.1 512 240Z" fill="#B182FF"/>
</g>
<defs>
<clipPath id="clip0_31_10514">
<rect width="512" height="512" fill="white"/>
</clipPath>
</defs>
</svg>
