<svg width="576" height="512" viewBox="0 0 576 512" fill="none" xmlns="http://www.w3.org/2000/svg">
<g clip-path="url(#clip0_29_10495)">
<path d="M288 32C207.2 32 142.5 68.8 95.3999 112.6C48.5999 156 17.2999 208 2.4999 243.7C-0.800098 251.6 -0.800098 260.4 2.4999 268.3C17.2999 304 48.5999 356 95.3999 399.4C142.5 443.2 207.2 480 288 480C368.8 480 433.5 443.2 480.6 399.4C527.4 355.9 558.7 304 573.6 268.3C576.9 260.4 576.9 251.6 573.6 243.7C558.7 208 527.4 156 480.6 112.6C433.5 68.8 368.8 32 288 32ZM144 256C144 217.809 159.171 181.182 186.177 154.177C213.182 127.171 249.809 112 288 112C326.191 112 362.818 127.171 389.823 154.177C416.829 181.182 432 217.809 432 256C432 294.191 416.829 330.818 389.823 357.823C362.818 384.829 326.191 400 288 400C249.809 400 213.182 384.829 186.177 357.823C159.171 330.818 144 294.191 144 256ZM288 192C288 227.3 259.3 256 224 256C216.9 256 210.1 254.8 203.7 252.7C198.2 250.9 191.8 254.3 192 260.1C192.3 267 193.3 273.9 195.2 280.8C208.9 332 261.6 362.4 312.8 348.7C364 335 394.4 282.3 380.7 231.1C369.6 189.6 332.9 161.7 292.1 160C286.3 159.8 282.9 166.1 284.7 171.7C286.8 178.1 288 184.9 288 192Z" fill="#B182FF"/>
</g>
<defs>
<clipPath id="clip0_29_10495">
<rect width="576" height="512" fill="white"/>
</clipPath>
</defs>
</svg>
