<svg width="26" height="29" viewBox="0 0 26 29" fill="none" xmlns="http://www.w3.org/2000/svg">
<g clip-path="url(#clip0_175_2646)">
<path d="M0 5.4375C0 4.43496 0.809961 3.625 1.8125 3.625H23.5625C24.565 3.625 25.375 4.43496 25.375 5.4375C25.375 6.44004 24.565 7.25 23.5625 7.25H1.8125C0.809961 7.25 0 6.44004 0 5.4375ZM0 14.5C0 13.4975 0.809961 12.6875 1.8125 12.6875H23.5625C24.565 12.6875 25.375 13.4975 25.375 14.5C25.375 15.5025 24.565 16.3125 23.5625 16.3125H1.8125C0.809961 16.3125 0 15.5025 0 14.5ZM25.375 23.5625C25.375 24.565 24.565 25.375 23.5625 25.375H1.8125C0.809961 25.375 0 24.565 0 23.5625C0 22.56 0.809961 21.75 1.8125 21.75H23.5625C24.565 21.75 25.375 22.56 25.375 23.5625Z" fill="#05000D"/>
</g>
<defs>
<clipPath id="clip0_175_2646">
<rect width="25.375" height="29" fill="white"/>
</clipPath>
</defs>
</svg>
