<svg width="49" height="29" viewBox="0 0 49 29" fill="none" xmlns="http://www.w3.org/2000/svg">
<rect x="0.5" y="0.5" width="48" height="28" rx="9.5" stroke="black"/>
<g clip-path="url(#clip0_188_265)">
<path d="M29.8125 12.9062C29.8125 14.4303 29.3178 15.8381 28.4844 16.9803L32.6879 21.1871C33.1029 21.6021 33.1029 22.2762 32.6879 22.6912C32.2729 23.1062 31.5988 23.1062 31.1838 22.6912L26.9803 18.4844C25.8381 19.3211 24.4303 19.8125 22.9062 19.8125C19.0912 19.8125 16 16.7213 16 12.9062C16 9.09121 19.0912 6 22.9062 6C26.7213 6 29.8125 9.09121 29.8125 12.9062ZM22.9062 17.6875C23.5341 17.6875 24.1559 17.5638 24.736 17.3235C25.316 17.0833 25.8431 16.7311 26.2871 16.2871C26.7311 15.8431 27.0833 15.316 27.3235 14.736C27.5638 14.1559 27.6875 13.5341 27.6875 12.9062C27.6875 12.2784 27.5638 11.6566 27.3235 11.0765C27.0833 10.4965 26.7311 9.96938 26.2871 9.5254C25.8431 9.08142 25.316 8.72923 24.736 8.48895C24.1559 8.24867 23.5341 8.125 22.9062 8.125C22.2784 8.125 21.6566 8.24867 21.0765 8.48895C20.4965 8.72923 19.9694 9.08142 19.5254 9.5254C19.0814 9.96938 18.7292 10.4965 18.489 11.0765C18.2487 11.6566 18.125 12.2784 18.125 12.9062C18.125 13.5341 18.2487 14.1559 18.489 14.736C18.7292 15.316 19.0814 15.8431 19.5254 16.2871C19.9694 16.7311 20.4965 17.0833 21.0765 17.3235C21.6566 17.5638 22.2784 17.6875 22.9062 17.6875Z" fill="#05000D"/>
</g>
<defs>
<clipPath id="clip0_188_265">
<rect width="17" height="17" fill="white" transform="translate(16 6)"/>
</clipPath>
</defs>
</svg>
