<svg width="512" height="512" viewBox="0 0 512 512" fill="none" xmlns="http://www.w3.org/2000/svg">
<path d="M313.4 32.9C339.4 38.1 356.3 63.4 351.1 89.4L348.8 100.8C343.5 127.5 333.7 152.9 320 176H464C490.5 176 512 197.5 512 224C512 242.5 501.5 258.6 486.1 266.6C497 275.4 504 288.9 504 304C504 327.4 487.2 346.9 465.1 351.1C469.5 358.4 472 366.9 472 376C472 397.3 458.1 415.4 438.9 421.6C439.6 424.9 440 428.4 440 432C440 458.5 418.5 480 392 480H294.5C275.5 480 257 474.4 241.2 463.9L202.7 438.2C176 420.4 160 390.4 160 358.3V320V272V247.1C160 217.9 173.3 190.4 196 172.1L203.4 166.2C229.9 145 248 115.2 254.6 82L256.9 70.6C262.1 44.6 287.4 27.7 313.4 32.9ZM32 192H96C113.7 192 128 206.3 128 224V448C128 465.7 113.7 480 96 480H32C14.3 480 0 465.7 0 448V224C0 206.3 14.3 192 32 192Z" fill="#B182FF"/>
</svg>
