<svg width="43" height="43" viewBox="0 0 43 43" fill="none" xmlns="http://www.w3.org/2000/svg">
<g clip-path="url(#clip0_19_2419)">
<path d="M26.0686 2.98086C28.2268 3.4125 29.6296 5.5126 29.198 7.6708L29.0071 8.61709C28.5671 10.8334 27.7537 12.9418 26.6165 14.8593H38.5696C40.7693 14.8593 42.554 16.6439 42.554 18.8436C42.554 20.3793 41.6824 21.7157 40.4041 22.3798C41.3088 23.1103 41.8899 24.2309 41.8899 25.4843C41.8899 27.4267 40.4954 29.0453 38.6609 29.3939C39.0261 29.9999 39.2336 30.7055 39.2336 31.4608C39.2336 33.2289 38.0798 34.7313 36.4861 35.246C36.5442 35.5199 36.5774 35.8104 36.5774 36.1093C36.5774 38.309 34.7927 40.0936 32.593 40.0936H24.4998C22.9226 40.0936 21.387 39.6288 20.0754 38.7572L16.8796 36.6239C14.6633 35.1464 13.3352 32.6561 13.3352 29.9916V26.8124V22.828V20.7611C13.3352 18.3373 14.4392 16.0546 16.3235 14.5355L16.9377 14.0458C19.1375 12.286 20.6399 9.8124 21.1877 7.05654L21.3787 6.11025C21.8103 3.95205 23.9104 2.54922 26.0686 2.98086ZM2.71021 16.1874H8.02271C9.49194 16.1874 10.679 17.3744 10.679 18.8436V37.4374C10.679 38.9066 9.49194 40.0936 8.02271 40.0936H2.71021C1.24097 40.0936 0.0539551 38.9066 0.0539551 37.4374V18.8436C0.0539551 17.3744 1.24097 16.1874 2.71021 16.1874Z" fill="#9452FF"/>
</g>
<defs>
<clipPath id="clip0_19_2419">
<rect width="42.5" height="42.5" fill="white" transform="translate(0.0539551 0.25)"/>
</clipPath>
</defs>
</svg>
